# xmcd
#
# Track frame offsets:
#	150
#	12176
#	30700
#	52203
#	73779
#	86112
#	104038
#	120583
#	128757
#	140184
#	154277
#	176137
#	187185
#	204678
#	215543
#
# Disc length: 3006 seconds
#
# Revision: 0
# Processed by: cddbd v1.5.2PL0 Copyright (c) Steve Scherf et al.
# Submitted via: EZCDAudioConverter 5.1.0.1
#
DISCID=f20bbc0f
DTITLE=Grupo Anima - Além do Azul do Céu
DYEAR=1900
DGENRE=
TTITLE0=Artista desconhecido - Cada dia o dia inteiro
TTITLE1=Artista desconhecido - Senhor, não te detenhas (Salmo 40)
TTITLE2=Artista desconhecido - Um caminho diferente
TTITLE3=Artista desconhecido - O Batismo
TTITLE4=Artista desconhecido - Gente que espera
TTITLE5=Artista desconhecido - Além do azul do céu
TTITLE6=Artista desconhecido - Deus é a Paz
TTITLE7=Artista desconhecido - Histórias de vida e fé
TTITLE8=Artista desconhecido - Santo é você, Senhor
TTITLE9=Artista desconhecido - O Bom Samaritano
TTITLE10=Artista desconhecido - Em Paz
TTITLE11=Artista desconhecido - Comunidade Jovem, Igreja viva
TTITLE12=Artista desconhecido - O Profeta
TTITLE13=Artista desconhecido - A minha oração
TTITLE14=Grupo Anima - Cuida bem, Senhor
EXTD=
EXTT0=
EXTT1=
EXTT2=
EXTT3=
EXTT4=
EXTT5=
EXTT6=
EXTT7=
EXTT8=
EXTT9=
EXTT10=
EXTT11=
EXTT12=
EXTT13=
EXTT14=
PLAYORDER=
